<mxfile host="app.diagrams.net" modified="2022-09-17T11:46:36.186Z" agent="5.0 (Windows NT 10.0; Win64; x64) AppleWebKit/537.36 (KHTML, like Gecko) Chrome/105.0.0.0 Safari/537.36" etag="cTb9xzqjTF8UFC6zK_ES" version="20.2.4" type="github">
  <diagram id="vmS5RZVExBRR5S5SQmJz" name="第 1 页">
    <mxGraphModel dx="576" dy="353" grid="1" gridSize="10" guides="1" tooltips="1" connect="1" arrows="1" fold="1" page="1" pageScale="1" pageWidth="827" pageHeight="1169" math="0" shadow="0">
      <root>
        <mxCell id="0" />
        <mxCell id="1" parent="0" />
        <mxCell id="AwiVHAV6ARE_haCIf1Jn-31" value="&lt;font face=&quot;Long Cang&quot; data-font-src=&quot;https://fonts.googleapis.com/css?family=Long+Cang&quot;&gt;本地变量表&lt;/font&gt;" style="rounded=0;whiteSpace=wrap;html=1;strokeColor=#9673a6;fillColor=#e1d5e7;sketch=1;container=0;" vertex="1" parent="1">
          <mxGeometry x="690" y="620" width="100" height="40" as="geometry" />
        </mxCell>
        <mxCell id="AwiVHAV6ARE_haCIf1Jn-40" value="&lt;font face=&quot;Long Cang&quot; data-font-src=&quot;https://fonts.googleapis.com/css?family=Long+Cang&quot;&gt;int&lt;/font&gt;" style="rounded=0;whiteSpace=wrap;html=1;strokeColor=#9673a6;fillColor=#e1d5e7;sketch=1;container=0;" vertex="1" parent="1">
          <mxGeometry x="690" y="660" width="100" height="25" as="geometry" />
        </mxCell>
        <mxCell id="AwiVHAV6ARE_haCIf1Jn-43" value="&lt;font face=&quot;Long Cang&quot; data-font-src=&quot;https://fonts.googleapis.com/css?family=Long+Cang&quot;&gt;short&lt;/font&gt;" style="rounded=0;whiteSpace=wrap;html=1;strokeColor=#9673a6;fillColor=#e1d5e7;sketch=1;container=0;" vertex="1" parent="1">
          <mxGeometry x="690" y="685" width="100" height="30" as="geometry" />
        </mxCell>
        <mxCell id="AwiVHAV6ARE_haCIf1Jn-45" value="&lt;font face=&quot;Long Cang&quot;&gt;double&lt;/font&gt;" style="rounded=0;whiteSpace=wrap;html=1;strokeColor=#9673a6;fillColor=#e1d5e7;sketch=1;container=0;" vertex="1" parent="1">
          <mxGeometry x="690" y="715" width="100" height="45" as="geometry" />
        </mxCell>
        <mxCell id="AwiVHAV6ARE_haCIf1Jn-48" value="" style="endArrow=none;dashed=1;html=1;fontFamily=Long Cang;fontSource=https%3A%2F%2Ffonts.googleapis.com%2Fcss%3Ffamily%3DLong%2BCang;fontColor=#5C5C5C;strokeColor=default;fillColor=#21C0A5;exitX=0.002;exitY=0.543;exitDx=0;exitDy=0;exitPerimeter=0;entryX=1.003;entryY=0.533;entryDx=0;entryDy=0;entryPerimeter=0;dashPattern=1 4;curved=1;sketch=0;" edge="1" parent="1" source="AwiVHAV6ARE_haCIf1Jn-45" target="AwiVHAV6ARE_haCIf1Jn-45">
          <mxGeometry width="50" height="50" relative="1" as="geometry">
            <mxPoint x="810" y="770" as="sourcePoint" />
            <mxPoint x="860" y="720" as="targetPoint" />
          </mxGeometry>
        </mxCell>
        <mxCell id="AwiVHAV6ARE_haCIf1Jn-49" value="&lt;font face=&quot;Long Cang&quot; data-font-src=&quot;https://fonts.googleapis.com/css?family=Long+Cang&quot;&gt;reference&lt;/font&gt;" style="rounded=0;whiteSpace=wrap;html=1;strokeColor=#9673a6;fillColor=#e1d5e7;sketch=1;container=0;" vertex="1" parent="1">
          <mxGeometry x="690" y="760" width="100" height="30" as="geometry" />
        </mxCell>
        <mxCell id="AwiVHAV6ARE_haCIf1Jn-50" value="&lt;font face=&quot;Long Cang&quot;&gt;refund add&lt;/font&gt;" style="rounded=0;whiteSpace=wrap;html=1;strokeColor=#9673a6;fillColor=#e1d5e7;sketch=1;container=0;" vertex="1" parent="1">
          <mxGeometry x="690" y="790" width="100" height="30" as="geometry" />
        </mxCell>
        <mxCell id="AwiVHAV6ARE_haCIf1Jn-51" value="&lt;font face=&quot;Long Cang&quot; data-font-src=&quot;https://fonts.googleapis.com/css?family=Long+Cang&quot;&gt;Java堆&lt;/font&gt;" style="rounded=0;whiteSpace=wrap;html=1;strokeColor=#9673a6;fillColor=#e1d5e7;sketch=1;container=0;" vertex="1" parent="1">
          <mxGeometry x="910" y="620" width="230" height="90" as="geometry" />
        </mxCell>
        <mxCell id="AwiVHAV6ARE_haCIf1Jn-52" value="&lt;font style=&quot;font-size: 11px;&quot;&gt;对象实例数据&lt;/font&gt;" style="rounded=0;whiteSpace=wrap;html=1;sketch=1;fontFamily=Long Cang;fontSource=https%3A%2F%2Ffonts.googleapis.com%2Fcss%3Ffamily%3DLong%2BCang;fontColor=#5C5C5C;strokeColor=#006658;fillColor=#FFFFFF;" vertex="1" parent="1">
          <mxGeometry x="920" y="635" width="40" height="60" as="geometry" />
        </mxCell>
        <mxCell id="AwiVHAV6ARE_haCIf1Jn-53" value="" style="endArrow=classic;html=1;sketch=0;fontFamily=Long Cang;fontSource=https%3A%2F%2Ffonts.googleapis.com%2Fcss%3Ffamily%3DLong%2BCang;fontSize=11;fontColor=#5C5C5C;strokeColor=default;fillColor=#21C0A5;curved=1;exitX=1;exitY=0.5;exitDx=0;exitDy=0;entryX=0;entryY=0.5;entryDx=0;entryDy=0;" edge="1" parent="1" source="AwiVHAV6ARE_haCIf1Jn-49" target="AwiVHAV6ARE_haCIf1Jn-52">
          <mxGeometry width="50" height="50" relative="1" as="geometry">
            <mxPoint x="870" y="790" as="sourcePoint" />
            <mxPoint x="920" y="740" as="targetPoint" />
          </mxGeometry>
        </mxCell>
        <mxCell id="AwiVHAV6ARE_haCIf1Jn-54" value="&lt;font face=&quot;Long Cang&quot; data-font-src=&quot;https://fonts.googleapis.com/css?family=Long+Cang&quot;&gt;方法区&lt;/font&gt;" style="rounded=0;whiteSpace=wrap;html=1;strokeColor=#9673a6;fillColor=#e1d5e7;sketch=1;container=0;" vertex="1" parent="1">
          <mxGeometry x="910" y="730" width="230" height="90" as="geometry" />
        </mxCell>
        <mxCell id="AwiVHAV6ARE_haCIf1Jn-55" value="&lt;font style=&quot;font-size: 11px;&quot;&gt;对象类型数据&lt;/font&gt;" style="rounded=0;whiteSpace=wrap;html=1;sketch=1;fontFamily=Long Cang;fontSource=https%3A%2F%2Ffonts.googleapis.com%2Fcss%3Ffamily%3DLong%2BCang;fontColor=#5C5C5C;strokeColor=#006658;fillColor=#FFFFFF;" vertex="1" parent="1">
          <mxGeometry x="1070" y="745" width="40" height="60" as="geometry" />
        </mxCell>
        <mxCell id="AwiVHAV6ARE_haCIf1Jn-56" value="" style="endArrow=classic;html=1;sketch=0;fontFamily=Long Cang;fontSource=https%3A%2F%2Ffonts.googleapis.com%2Fcss%3Ffamily%3DLong%2BCang;fontSize=11;fontColor=#5C5C5C;strokeColor=default;fillColor=#21C0A5;curved=1;exitX=1;exitY=0.5;exitDx=0;exitDy=0;entryX=0;entryY=0.5;entryDx=0;entryDy=0;" edge="1" parent="1" source="AwiVHAV6ARE_haCIf1Jn-52" target="AwiVHAV6ARE_haCIf1Jn-55">
          <mxGeometry width="50" height="50" relative="1" as="geometry">
            <mxPoint x="800" y="785" as="sourcePoint" />
            <mxPoint x="930" y="675" as="targetPoint" />
          </mxGeometry>
        </mxCell>
      </root>
    </mxGraphModel>
  </diagram>
</mxfile>
